<?xml version="1.0" encoding="windows-1252"?>
<svg version="1.1" id="Layer_1" xmlns="http://www.w3.org/2000/svg" xmlns:xlink="http://www.w3.org/1999/xlink" x="0px" y="0px" viewBox="0 0 16 16" style="fill: #303030; enable-background:new 0 0 16 16;" xml:space="preserve">
<g>
	<path d="M13.958,11.404c-0.752-0.527-1.794-0.345-2.322,0.407c-0.376,0.536-0.988,0.856-1.636,0.856c-1.103,0-2-0.897-2-2   s0.897-2,2-2c0.648,0,1.259,0.32,1.636,0.856c0.528,0.752,1.57,0.934,2.322,0.407c0.752-0.528,0.935-1.569,0.407-2.322   c-0.999-1.424-2.631-2.275-4.364-2.275c-0.337,0-0.666,0.035-0.985,0.095l0.002-0.003C8.834,5.462,8.662,5.339,8.628,5.158   C8.594,4.979,8.714,4.804,8.894,4.77c0.598-0.111,1.208-0.133,1.813-0.061c0.14,0.016,0.267-0.053,0.332-0.173l0.761-1.41   c0.437-0.808,0.134-1.821-0.675-2.258c-0.809-0.435-1.821-0.133-2.258,0.675L6.922,5.145C6.837,5.301,6.629,5.367,6.47,5.279   C6.392,5.238,6.335,5.167,6.309,5.082C6.284,4.997,6.293,4.907,6.335,4.828L7.96,1.819C7.986,1.77,8,1.715,8,1.66   C7.996,0.744,7.249,0,6.334,0C5.415,0,4.667,0.747,4.667,1.667v3.799v0.867c0,0.184-0.149,0.333-0.333,0.333   c-0.184,0-0.333-0.15-0.333-0.333V3.181c0-0.119-0.063-0.229-0.167-0.288C3.363,2.62,2.788,2.594,2.296,2.823   C1.893,3.011,1.587,3.345,1.434,3.764C1.282,4.182,1.302,4.635,1.49,5.038l3.636,7.792l0.002-0.004   C5.959,14.693,7.829,16,10.001,16c1.733,0,3.365-0.85,4.364-2.275C14.893,12.973,14.71,11.932,13.958,11.404z"/>
</g>
</svg>